<svg width="841" height="454" xmlns="http://www.w3.org/2000/svg" xmlns:xlink="http://www.w3.org/1999/xlink" overflow="hidden"><defs><clipPath id="clip0"><rect x="0" y="0" width="841" height="454"/></clipPath></defs><g clip-path="url(#clip0)"><rect x="0" y="0" width="841" height="454.501" fill="#FFFFFF"/><path d="M51.5001 118.631 115.5 118.631 115.5 158.71 96.5357 177.696 51.5001 177.696Z" fill="#FFFFFF" fill-rule="evenodd"/><path d="M96.5357 177.696 100.329 162.508 115.5 158.71Z" fill="#CDCDCD" fill-rule="evenodd"/><path d="M96.5357 177.696 100.329 162.508 115.5 158.71 96.5357 177.696 51.5001 177.696 51.5001 118.631 115.5 118.631 115.5 158.71" stroke="#172C51" stroke-width="1.33333" stroke-miterlimit="8" fill="none" fill-rule="evenodd"/><path d="M30.5001 106.617 93.5001 106.617 93.5001 146.697 74.5357 165.683 30.5001 165.683Z" fill="#FFFFFF" fill-rule="evenodd"/><path d="M74.5357 165.683 78.3286 150.494 93.5001 146.697Z" fill="#CDCDCD" fill-rule="evenodd"/><path d="M74.5357 165.683 78.3286 150.494 93.5001 146.697 74.5357 165.683 30.5001 165.683 30.5001 106.617 93.5001 106.617 93.5001 146.697" stroke="#172C51" stroke-width="1.33333" stroke-miterlimit="8" fill="none" fill-rule="evenodd"/><path d="M9.50005 94.6042 72.5001 94.6042 72.5001 134.684 53.5357 153.669 9.50005 153.669Z" fill="#FFFFFF" fill-rule="evenodd"/><path d="M53.5357 153.669 57.3286 138.481 72.5001 134.684Z" fill="#CDCDCD" fill-rule="evenodd"/><path d="M53.5357 153.669 57.3286 138.481 72.5001 134.684 53.5357 153.669 9.50005 153.669 9.50005 94.6042 72.5001 94.6042 72.5001 134.684" stroke="#172C51" stroke-width="1.33333" stroke-miterlimit="8" fill="none" fill-rule="evenodd"/><path d="M159 117.797C159 112.452 163.328 108.119 168.667 108.119L242.333 108.119C247.672 108.119 252 112.452 252 117.797L252 156.506C252 161.85 247.672 166.183 242.333 166.183L168.667 166.183C163.328 166.183 159 161.85 159 156.506Z" fill="#4472C4" fill-rule="evenodd"/><text fill="#FFFFFF" font-family="Calibri,Calibri_MSFontService,sans-serif" font-weight="700" font-size="14.6828" transform="matrix(1 0 0 1.0011 171.767 125)">create_</text><text fill="#FFFFFF" font-family="Calibri,Calibri_MSFontService,sans-serif" font-weight="700" font-size="14.6828" transform="matrix(1 0 0 1.0011 171.767 142)">training_</text><text fill="#FFFFFF" font-family="Calibri,Calibri_MSFontService,sans-serif" font-weight="700" font-size="14.6828" transform="matrix(1 0 0 1.0011 171.767 160)">data.py</text><path d="M297.5 119.632C297.5 122.949 313.842 125.638 334 125.638 354.158 125.638 370.5 122.949 370.5 119.632L370.5 155.672C370.5 158.989 354.158 161.678 334 161.678 313.842 161.678 297.5 158.989 297.5 155.672Z" fill="#FFFFFF" fill-rule="evenodd"/><path d="M297.5 119.632C297.5 116.314 313.842 113.625 334 113.625 354.158 113.625 370.5 116.314 370.5 119.632 370.5 122.949 354.158 125.638 334 125.638 313.842 125.638 297.5 122.949 297.5 119.632Z" fill="#FFFFFF" fill-rule="evenodd"/><path d="M370.5 119.632C370.5 122.949 354.158 125.638 334 125.638 313.842 125.638 297.5 122.949 297.5 119.632 297.5 116.314 313.842 113.625 334 113.625 354.158 113.625 370.5 116.314 370.5 119.632L370.5 155.672C370.5 158.989 354.158 161.678 334 161.678 313.842 161.678 297.5 158.989 297.5 155.672L297.5 119.632" stroke="#172C51" stroke-width="1.33333" stroke-miterlimit="8" fill="none" fill-rule="evenodd"/><text font-family="Calibri,Calibri_MSFontService,sans-serif" font-weight="700" font-size="14.6828" transform="matrix(1 0 0 1.0011 312.791 145)">**</text><text font-family="Calibri,Calibri_MSFontService,sans-serif" font-weight="700" font-size="14.6828" transform="matrix(1 0 0 1.0011 327.458 145)">.npy</text><path d="M414 115.961C414 110.524 418.403 106.117 423.833 106.117L498.167 106.117C503.597 106.117 508 110.524 508 115.961L508 155.338C508 160.774 503.597 165.182 498.167 165.182L423.833 165.182C418.403 165.182 414 160.774 414 155.338Z" fill="#4472C4" fill-rule="evenodd"/><text fill="#FFFFFF" font-family="Calibri,Calibri_MSFontService,sans-serif" font-weight="700" font-size="14.6828" transform="matrix(1 0 0 1.0011 426.949 141)">train.py</text><path d="M552.5 117.755C552.5 121.141 568.842 123.887 589 123.887 609.158 123.887 625.5 121.141 625.5 117.755L625.5 154.545C625.5 157.932 609.158 160.677 589 160.677 568.842 160.677 552.5 157.932 552.5 154.545Z" fill="#FFFFFF" fill-rule="evenodd"/><path d="M552.5 117.755C552.5 114.368 568.842 111.623 589 111.623 609.158 111.623 625.5 114.368 625.5 117.755 625.5 121.141 609.158 123.887 589 123.887 568.842 123.887 552.5 121.141 552.5 117.755Z" fill="#FFFFFF" fill-rule="evenodd"/><path d="M625.5 117.755C625.5 121.141 609.158 123.887 589 123.887 568.842 123.887 552.5 121.141 552.5 117.755 552.5 114.368 568.842 111.623 589 111.623 609.158 111.623 625.5 114.368 625.5 117.755L625.5 154.545C625.5 157.932 609.158 160.677 589 160.677 568.842 160.677 552.5 157.932 552.5 154.545L552.5 117.755" stroke="#172C51" stroke-width="1.33333" stroke-miterlimit="8" fill="none" fill-rule="evenodd"/><text font-family="Calibri,Calibri_MSFontService,sans-serif" font-weight="700" font-size="14.6828" transform="matrix(1 0 0 1.0011 569.306 135)">model</text><text font-family="Calibri,Calibri_MSFontService,sans-serif" font-weight="700" font-size="14.6828" transform="matrix(1 0 0 1.0011 576.22 152)">.pth</text><path d="M552.5 183.702C552.5 187.02 568.842 189.709 589 189.709 609.158 189.709 625.5 187.02 625.5 183.702L625.5 219.742C625.5 223.059 609.158 225.749 589 225.749 568.842 225.749 552.5 223.059 552.5 219.742Z" fill="#FFFFFF" fill-rule="evenodd"/><path d="M552.5 183.702C552.5 180.385 568.842 177.696 589 177.696 609.158 177.696 625.5 180.385 625.5 183.702 625.5 187.02 609.158 189.709 589 189.709 568.842 189.709 552.5 187.02 552.5 183.702Z" fill="#FFFFFF" fill-rule="evenodd"/><path d="M625.5 183.702C625.5 187.02 609.158 189.709 589 189.709 568.842 189.709 552.5 187.02 552.5 183.702 552.5 180.385 568.842 177.696 589 177.696 609.158 177.696 625.5 180.385 625.5 183.702L625.5 219.742C625.5 223.059 609.158 225.749 589 225.749 568.842 225.749 552.5 223.059 552.5 219.742L552.5 183.702" stroke="#172C51" stroke-width="1.33333" stroke-miterlimit="8" fill="none" fill-rule="evenodd"/><text font-family="Calibri,Calibri_MSFontService,sans-serif" font-weight="700" font-size="14.6828" transform="matrix(1 0 0 1.0011 559.39 201)">optimizer</text><text font-family="Calibri,Calibri_MSFontService,sans-serif" font-weight="700" font-size="14.6828" transform="matrix(1 0 0 1.0011 576.216 218)">.pth</text><path d="M114.5 135.149 152.53 135.149 152.53 138.152 114.5 138.152ZM144.286 130.098 155.507 136.651 144.286 143.203C143.57 143.621 142.652 143.379 142.234 142.663 141.817 141.947 142.059 141.027 142.774 140.609L151.774 135.353 151.774 137.948 142.774 132.692C142.059 132.274 141.817 131.354 142.234 130.638 142.652 129.922 143.57 129.68 144.286 130.098Z"/><path d="M253.5 137.151 291.53 137.151 291.53 140.154 253.5 140.154ZM283.286 132.1 294.507 138.653 283.286 145.206C282.57 145.624 281.652 145.382 281.234 144.665 280.817 143.949 281.059 143.029 281.774 142.611L290.774 137.356 290.774 139.95 281.774 134.694C281.059 134.276 280.817 133.357 281.234 132.64 281.652 131.924 282.57 131.682 283.286 132.1Z"/><path d="M372.5 137.151 410.53 137.151 410.53 140.154 372.5 140.154ZM402.286 132.1 413.507 138.653 402.286 145.206C401.57 145.624 400.652 145.382 400.234 144.665 399.817 143.949 400.059 143.029 400.774 142.611L409.774 137.356 409.774 139.95 400.774 134.694C400.059 134.276 399.817 133.357 400.234 132.64 400.652 131.924 401.57 131.682 402.286 132.1Z"/><path d="M509.5 137.151 547.53 137.151 547.53 140.154 509.5 140.154ZM539.286 132.1 550.507 138.653 539.286 145.206C538.57 145.624 537.652 145.382 537.234 144.665 536.817 143.949 537.059 143.029 537.774 142.611L546.774 137.356 546.774 139.95 537.774 134.694C537.059 134.276 536.817 133.357 537.234 132.64 537.652 131.924 538.57 131.682 539.286 132.1Z"/><path d="M537.5 111.623C537.5 102.224 545.111 94.6042 554.5 94.6042L622.5 94.6042C631.889 94.6042 639.5 102.224 639.5 111.623L639.5 220.743C639.5 230.142 631.889 237.762 622.5 237.762L554.5 237.762C545.111 237.762 537.5 230.142 537.5 220.743Z" stroke="#172C51" stroke-width="1.33333" stroke-miterlimit="8" stroke-dasharray="5.33333 4" fill="none" fill-rule="evenodd"/><path d="M-1.0791 56.9581 52.8578 1.09487 55.016 3.17865 1.0791 59.0419ZM43.5017 3.52092 56.0048-0.00500164 52.9196 12.6141C52.7229 13.4188 51.911 13.9117 51.1063 13.7149 50.3016 13.5182 49.8087 12.7063 50.0055 11.9016L52.48 1.78039 54.3442 3.58031 44.316 6.40831C43.5186 6.63316 42.69 6.16907 42.4652 5.37174 42.2403 4.57441 42.7044 3.74577 43.5017 3.52092Z" transform="matrix(1 0 0 -1.0011 627.5 205.727)"/><path d="M586.833 89.2137 586.833 83.8745 588.167 83.8745 588.167 89.2137ZM586.833 79.8701 586.833 74.5309 588.167 74.5309 588.167 79.8701ZM586.833 70.5264 586.833 65.1872 588.167 65.1872 588.167 70.5264ZM586.833 61.1828 586.833 55.8436 588.167 55.8436 588.167 61.1828ZM584.782 55.2275 579.449 55.2275 579.449 53.8927 584.782 53.8927ZM575.449 55.2275 570.115 55.2275 570.115 53.8927 575.449 53.8927ZM566.115 55.2275 560.782 55.2275 560.782 53.8927 566.115 53.8927ZM556.782 55.2275 551.449 55.2275 551.449 53.8927 556.782 53.8927ZM547.449 55.2275 542.115 55.2275 542.115 53.8927 547.449 53.8927ZM538.115 55.2275 532.782 55.2275 532.782 53.8927 538.115 53.8927ZM528.782 55.2275 523.449 55.2275 523.449 53.8927 528.782 53.8927ZM519.449 55.2275 514.115 55.2275 514.115 53.8927 519.449 53.8927ZM510.115 55.2275 504.782 55.2275 504.782 53.8927 510.115 53.8927ZM500.782 55.2275 495.449 55.2275 495.449 53.8927 500.782 53.8927ZM491.449 55.2275 486.115 55.2275 486.115 53.8927 491.449 53.8927ZM482.115 55.2275 476.782 55.2275 476.782 53.8927 482.115 53.8927ZM472.782 55.2275 467.449 55.2275 467.449 53.8927 472.782 53.8927ZM463.449 55.2275 458.115 55.2275 458.115 53.8927 463.449 53.8927ZM458.167 57.9485 458.167 63.2877 456.833 63.2877 456.833 57.9485ZM458.167 67.2921 458.167 72.6313 456.833 72.6313 456.833 67.2921ZM458.167 76.6357 458.167 81.975 456.833 81.975 456.833 76.6357ZM458.167 85.9794 458.167 91.3186 456.833 91.3186 456.833 85.9794ZM458.167 95.323 458.167 100.662 456.833 100.662 456.833 95.323ZM462.743 95.6213 457.5 104.618 452.258 95.6213C452.072 95.3029 452.179 94.8942 452.497 94.7085 452.816 94.5228 453.224 94.6303 453.409 94.9487L458.076 102.958 456.924 102.958 461.591 94.9487C461.776 94.6303 462.185 94.5228 462.503 94.7085 462.821 94.8942 462.928 95.3029 462.743 95.6213Z" fill="#172C51"/><text font-family="Yu Gothic,Yu Gothic_MSFontService,sans-serif" font-weight="700" font-size="14.6828" transform="matrix(1 0 0 1.0011 13.5612 72)">学習データ</text><text font-family="Calibri,Calibri_MSFontService,sans-serif" font-weight="700" font-size="14.6828" transform="matrix(1 0 0 1.0011 13.5612 89)">(</text><text font-family="Yu Gothic,Yu Gothic_MSFontService,sans-serif" font-weight="700" font-size="14.6828" transform="matrix(1 0 0 1.0011 18.0612 89)">画像群</text><text font-family="Calibri,Calibri_MSFontService,sans-serif" font-weight="700" font-size="14.6828" transform="matrix(1 0 0 1.0011 62.0612 89)">)</text><text font-family="Yu Gothic,Yu Gothic_MSFontService,sans-serif" font-weight="700" font-size="14.6828" transform="matrix(1 0 0 1.0011 492.418 77)">学習再開</text><path d="M9 13.0143 330.5 13.0143 344 26.5294 330.5 40.0441 9 40.0441Z" fill="#4472C4" fill-rule="evenodd"/><text fill="#FFFFFF" font-family="Yu Gothic,Yu Gothic_MSFontService,sans-serif" font-weight="700" font-size="14.6828" transform="matrix(1 0 0 1.0011 158.149 32)">準備</text><path d="M344 12.0132 573 12.0132 587 26.0287 573 40.0441 344 40.0441Z" fill="#4472C4" fill-rule="evenodd"/><text fill="#FFFFFF" font-family="Yu Gothic,Yu Gothic_MSFontService,sans-serif" font-weight="700" font-size="14.6828" transform="matrix(1 0 0 1.0011 447.343 31)">学習</text><path d="M589 12.0132 818 12.0132 832 26.0287 818 40.0441 589 40.0441Z" fill="#4472C4" fill-rule="evenodd"/><text fill="#FFFFFF" font-family="Yu Gothic,Yu Gothic_MSFontService,sans-serif" font-weight="700" font-size="14.6828" transform="matrix(1 0 0 1.0011 692.049 31)">生成</text><path d="M290 215.07C290 209.633 294.403 205.226 299.834 205.226L373.166 205.226C378.597 205.226 383 209.633 383 215.07L383 254.447C383 259.884 378.597 264.291 373.166 264.291L299.834 264.291C294.403 264.291 290 259.884 290 254.447Z" fill="#00B050" fill-rule="evenodd"/><text fill="#FFFFFF" font-family="Calibri,Calibri_MSFontService,sans-serif" font-weight="700" font-size="14.6828" transform="matrix(1 0 0 1.0011 302.359 223)">HPF</text><text fill="#FFFFFF" font-family="Calibri,Calibri_MSFontService,sans-serif" font-weight="700" font-size="14.6828" transform="matrix(1 0 0 1.0011 326.192 223)">_</text><text fill="#FFFFFF" font-family="Calibri,Calibri_MSFontService,sans-serif" font-weight="700" font-size="14.6828" transform="matrix(1 0 0 1.0011 302.359 240)">training_</text><text fill="#FFFFFF" font-family="Calibri,Calibri_MSFontService,sans-serif" font-weight="700" font-size="14.6828" transform="matrix(1 0 0 1.0011 302.359 258)">data.py</text><path d="M295.5 315.973C295.5 319.36 311.842 322.105 332 322.105 352.158 322.105 368.5 319.36 368.5 315.973L368.5 352.764C368.5 356.15 352.158 358.895 332 358.895 311.842 358.895 295.5 356.15 295.5 352.764Z" fill="#FFFFFF" fill-rule="evenodd"/><path d="M295.5 315.973C295.5 312.587 311.842 309.841 332 309.841 352.158 309.841 368.5 312.587 368.5 315.973 368.5 319.36 352.158 322.105 332 322.105 311.842 322.105 295.5 319.36 295.5 315.973Z" fill="#FFFFFF" fill-rule="evenodd"/><path d="M368.5 315.973C368.5 319.36 352.158 322.105 332 322.105 311.842 322.105 295.5 319.36 295.5 315.973 295.5 312.587 311.842 309.841 332 309.841 352.158 309.841 368.5 312.587 368.5 315.973L368.5 352.764C368.5 356.15 352.158 358.895 332 358.895 311.842 358.895 295.5 356.15 295.5 352.764L295.5 315.973" stroke="#00B050" stroke-width="1.33333" stroke-miterlimit="8" fill="none" fill-rule="evenodd"/><text fill="#00B050" font-family="Calibri,Calibri_MSFontService,sans-serif" font-weight="700" font-size="14.6828" transform="matrix(1 0 0 1.0011 303.108 334)">**</text><text fill="#00B050" font-family="Yu Gothic,Yu Gothic_MSFontService,sans-serif" font-weight="700" font-size="14.6828" transform="matrix(1 0 0 1.0011 317.775 334)">＿</text><text fill="#00B050" font-family="Calibri,Calibri_MSFontService,sans-serif" font-weight="700" font-size="14.6828" transform="matrix(1 0 0 1.0011 332.441 334)">HPF</text><text fill="#00B050" font-family="Calibri,Calibri_MSFontService,sans-serif" font-weight="700" font-size="14.6828" transform="matrix(1 0 0 1.0011 356.275 334)">.</text><text fill="#00B050" font-family="Calibri,Calibri_MSFontService,sans-serif" font-weight="700" font-size="14.6828" transform="matrix(1 0 0 1.0011 320.355 351)">npy</text><path d="M335 161.678 335 203.754 332 203.754 332 161.678ZM340.046 195.501 333.5 206.735 326.954 195.501C326.537 194.785 326.779 193.865 327.494 193.447 328.21 193.03 329.128 193.272 329.546 193.988L334.796 202.998 332.204 202.998 337.454 193.988C337.872 193.272 338.79 193.03 339.506 193.447 340.221 193.865 340.463 194.785 340.046 195.501Z" fill="#00B050"/><path d="M335 266.794 335 306.868 332 306.868 332 266.794ZM340.046 298.615 333.5 309.848 326.954 298.615C326.537 297.898 326.779 296.979 327.494 296.561 328.21 296.143 329.128 296.385 329.546 297.101L334.796 306.111 332.204 306.111 337.454 297.101C337.872 296.385 338.79 296.143 339.506 296.561 340.221 296.979 340.463 297.898 340.046 298.615Z" fill="#00B050"/><path d="M413 318.017C413 312.672 417.328 308.34 422.667 308.34L496.333 308.34C501.672 308.34 506 312.672 506 318.017L506 356.726C506 362.071 501.672 366.404 496.333 366.404L422.667 366.404C417.328 366.404 413 362.071 413 356.726Z" fill="#00B050" fill-rule="evenodd"/><text fill="#FFFFFF" font-family="Calibri,Calibri_MSFontService,sans-serif" font-weight="700" font-size="14.6828" transform="matrix(1 0 0 1.0011 423.575 343)">train</text><text fill="#FFFFFF" font-family="Calibri,Calibri_MSFontService,sans-serif" font-weight="700" font-size="14.6828" transform="matrix(1 0 0 1.0011 452.575 343)">HPF</text><text fill="#FFFFFF" font-family="Calibri,Calibri_MSFontService,sans-serif" font-weight="700" font-size="14.6828" transform="matrix(1 0 0 1.0011 476.408 343)">.py</text><path d="M551.5 319.852C551.5 323.17 567.618 325.859 587.5 325.859 607.382 325.859 623.5 323.17 623.5 319.852L623.5 355.892C623.5 359.209 607.382 361.899 587.5 361.899 567.618 361.899 551.5 359.209 551.5 355.892Z" fill="#FFFFFF" fill-rule="evenodd"/><path d="M551.5 319.852C551.5 316.535 567.618 313.846 587.5 313.846 607.382 313.846 623.5 316.535 623.5 319.852 623.5 323.17 607.382 325.859 587.5 325.859 567.618 325.859 551.5 323.17 551.5 319.852Z" fill="#FFFFFF" fill-rule="evenodd"/><path d="M623.5 319.852C623.5 323.17 607.382 325.859 587.5 325.859 567.618 325.859 551.5 323.17 551.5 319.852 551.5 316.535 567.618 313.846 587.5 313.846 607.382 313.846 623.5 316.535 623.5 319.852L623.5 355.892C623.5 359.209 607.382 361.899 587.5 361.899 567.618 361.899 551.5 359.209 551.5 355.892L551.5 319.852" stroke="#00B050" stroke-width="1.33333" stroke-miterlimit="8" fill="none" fill-rule="evenodd"/><text fill="#00B050" font-family="Calibri,Calibri_MSFontService,sans-serif" font-weight="700" font-size="14.6828" transform="matrix(1 0 0 1.0011 555.749 337)">model</text><text fill="#00B050" font-family="Calibri,Calibri_MSFontService,sans-serif" font-weight="700" font-size="14.6828" transform="matrix(1 0 0 1.0011 594.416 337)">HPF</text><text fill="#00B050" font-family="Calibri,Calibri_MSFontService,sans-serif" font-weight="700" font-size="14.6828" transform="matrix(1 0 0 1.0011 574.576 354)">.pth</text><path d="M551.5 385.049C551.5 388.436 567.618 391.181 587.5 391.181 607.382 391.181 623.5 388.436 623.5 385.049L623.5 421.84C623.5 425.226 607.382 427.971 587.5 427.971 567.618 427.971 551.5 425.226 551.5 421.84Z" fill="#FFFFFF" fill-rule="evenodd"/><path d="M551.5 385.049C551.5 381.663 567.618 378.917 587.5 378.917 607.382 378.917 623.5 381.663 623.5 385.049 623.5 388.436 607.382 391.181 587.5 391.181 567.618 391.181 551.5 388.436 551.5 385.049Z" fill="#FFFFFF" fill-rule="evenodd"/><path d="M623.5 385.049C623.5 388.436 607.382 391.181 587.5 391.181 567.618 391.181 551.5 388.436 551.5 385.049 551.5 381.663 567.618 378.917 587.5 378.917 607.382 378.917 623.5 381.663 623.5 385.049L623.5 421.84C623.5 425.226 607.382 427.971 587.5 427.971 567.618 427.971 551.5 425.226 551.5 421.84L551.5 385.049" stroke="#00B050" stroke-width="1.33333" stroke-miterlimit="8" fill="none" fill-rule="evenodd"/><text fill="#00B050" font-family="Calibri,Calibri_MSFontService,sans-serif" font-weight="700" font-size="14.6828" transform="matrix(1 0 0 1.0011 545.833 403)">optimizer</text><text fill="#00B050" font-family="Calibri,Calibri_MSFontService,sans-serif" font-weight="700" font-size="14.6828" transform="matrix(1 0 0 1.0011 604.333 403)">HPF</text><text fill="#00B050" font-family="Calibri,Calibri_MSFontService,sans-serif" font-weight="700" font-size="14.6828" transform="matrix(1 0 0 1.0011 574.579 420)">.pth</text><path d="M683 211.066C683 205.629 687.403 201.222 692.833 201.222L819.167 201.222C824.597 201.222 829 205.629 829 211.066L829 250.442C829 255.879 824.597 260.287 819.167 260.287L692.833 260.287C687.403 260.287 683 255.879 683 250.442Z" fill="#00B050" fill-rule="evenodd"/><text fill="#FFFFFF" font-family="Calibri,Calibri_MSFontService,sans-serif" font-weight="700" font-size="14.6828" transform="matrix(1 0 0 1.0011 695.887 236)">generate</text><text fill="#FFFFFF" font-family="Calibri,Calibri_MSFontService,sans-serif" font-weight="700" font-size="14.6828" transform="matrix(1 0 0 1.0011 750.22 236)">HPF</text><text fill="#FFFFFF" font-family="Calibri,Calibri_MSFontService,sans-serif" font-weight="700" font-size="14.6828" transform="matrix(1 0 0 1.0011 774.053 236)">.py</text><path d="M507.5 338.373 545.53 338.373 545.53 341.376 507.5 341.376ZM537.286 333.321 548.507 339.874 537.286 346.427C536.57 346.845 535.652 346.603 535.234 345.887 534.817 345.17 535.059 344.251 535.774 343.833L544.774 338.577 544.774 341.171 535.774 335.916C535.059 335.498 534.817 334.578 535.234 333.862 535.652 333.146 536.57 332.904 537.286 333.321Z" fill="#00B050"/><path d="M535.5 313.846C535.5 304.447 543.111 296.827 552.5 296.827L620.5 296.827C629.889 296.827 637.5 304.447 637.5 313.846L637.5 422.966C637.5 432.365 629.889 439.985 620.5 439.985L552.5 439.985C543.111 439.985 535.5 432.365 535.5 422.966Z" stroke="#172C51" stroke-width="1.33333" stroke-miterlimit="8" stroke-dasharray="5.33333 4" fill="none" fill-rule="evenodd"/><path d="M624.352 328.897 680.441 262.097 682.737 264.029 626.648 330.83ZM671.274 265.165 683.505 260.782 681.295 273.598C681.154 274.415 680.378 274.963 679.562 274.822 678.745 274.681 678.198 273.904 678.339 273.087L680.111 262.808 682.094 264.477 672.285 267.992C671.505 268.272 670.646 267.865 670.367 267.084 670.088 266.304 670.494 265.444 671.274 265.165Z" fill="#00B050"/><path d="M586.833 293.131 586.833 287.791 588.167 287.791 588.167 293.131ZM586.833 283.787 586.833 278.448 588.167 278.448 588.167 283.787ZM586.833 274.443 586.833 269.104 588.167 269.104 588.167 274.443ZM586.833 265.1 586.833 259.76 588.167 259.76 588.167 265.1ZM585.474 258.451 580.141 258.451 580.141 257.117 585.474 257.117ZM576.141 258.451 570.808 258.451 570.808 257.117 576.141 257.117ZM566.808 258.451 561.474 258.451 561.474 257.117 566.808 257.117ZM557.474 258.451 552.141 258.451 552.141 257.117 557.474 257.117ZM548.141 258.451 542.808 258.451 542.808 257.117 548.141 257.117ZM538.808 258.451 533.474 258.451 533.474 257.117 538.808 257.117ZM529.474 258.451 524.141 258.451 524.141 257.117 529.474 257.117ZM520.141 258.451 514.808 258.451 514.808 257.117 520.141 257.117ZM510.808 258.451 505.474 258.451 505.474 257.117 510.808 257.117ZM501.474 258.451 496.141 258.451 496.141 257.117 501.474 257.117ZM492.141 258.451 486.808 258.451 486.808 257.117 492.141 257.117ZM482.808 258.451 477.474 258.451 477.474 257.117 482.808 257.117ZM473.474 258.451 468.141 258.451 468.141 257.117 473.474 257.117ZM464.141 258.451 458.808 258.451 458.808 257.117 464.141 257.117ZM458.167 260.479 458.167 265.818 456.833 265.818 456.833 260.479ZM458.167 269.823 458.167 275.162 456.833 275.162 456.833 269.823ZM458.167 279.167 458.167 284.506 456.833 284.506 456.833 279.167ZM458.167 288.51 458.167 293.849 456.833 293.849 456.833 288.51ZM458.167 297.854 458.167 303.193 456.833 303.193 456.833 297.854ZM458.167 307.197 458.167 307.519 456.833 307.519 456.833 307.197ZM462.743 299.846 457.5 308.843 452.258 299.846C452.072 299.528 452.179 299.119 452.497 298.933 452.816 298.748 453.224 298.855 453.409 299.174L458.076 307.182 456.924 307.182 461.591 299.174C461.776 298.855 462.185 298.748 462.503 298.933 462.821 299.119 462.928 299.528 462.743 299.846Z" fill="#00B050"/><text fill="#00B050" font-family="Yu Gothic,Yu Gothic_MSFontService,sans-serif" font-weight="700" font-size="14.6828" transform="matrix(1 0 0 1.0011 491.976 281)">学習再開</text><path d="M366.5 336.371 411.53 336.371 411.53 339.374 366.5 339.374ZM403.286 331.319 414.507 337.872 403.286 344.425C402.57 344.843 401.652 344.601 401.234 343.885 400.817 343.168 401.059 342.249 401.774 341.831L410.774 336.575 410.774 339.169 401.774 333.913C401.059 333.496 400.817 332.576 401.234 331.86 401.652 331.143 402.57 330.901 403.286 331.319Z" fill="#00B050"/><text font-family="Yu Gothic,Yu Gothic_MSFontService,sans-serif" font-weight="700" font-size="14.6828" transform="matrix(1 0 0 1.0011 659.825 167)">ぼやける</text><text fill="#00B050" font-family="Yu Gothic,Yu Gothic_MSFontService,sans-serif" font-weight="700" font-size="14.6828" transform="matrix(1 0 0 1.0011 662.387 308)">高周波成分</text></g></svg>