<svg width="1123" height="302" xmlns="http://www.w3.org/2000/svg" xmlns:xlink="http://www.w3.org/1999/xlink" overflow="hidden"><defs><clipPath id="clip0"><rect x="0" y="0" width="1123" height="302"/></clipPath></defs><g clip-path="url(#clip0)"><rect x="0" y="0" width="1123" height="301.533" fill="#FFFFFF"/><path d="M138.5 142.279 215.5 142.279 215.5 190.383 192.678 213.17 138.5 213.17Z" fill="#FFFFFF" fill-rule="evenodd"/><path d="M192.678 213.17 197.243 194.941 215.5 190.383Z" fill="#CDCDCD" fill-rule="evenodd"/><path d="M192.678 213.17 197.243 194.941 215.5 190.383 192.678 213.17 138.5 213.17 138.5 142.279 215.5 142.279 215.5 190.383" stroke="#172C51" stroke-width="1.33393" stroke-miterlimit="8" fill="none" fill-rule="evenodd"/><path d="M112.5 128.301 189.5 128.301 189.5 176.405 166.678 199.191 112.5 199.191Z" fill="#FFFFFF" fill-rule="evenodd"/><path d="M166.678 199.191 171.243 180.962 189.5 176.405Z" fill="#CDCDCD" fill-rule="evenodd"/><path d="M166.678 199.191 171.243 180.962 189.5 176.405 166.678 199.191 112.5 199.191 112.5 128.301 189.5 128.301 189.5 176.405" stroke="#172C51" stroke-width="1.33393" stroke-miterlimit="8" fill="none" fill-rule="evenodd"/><path d="M87.5 114.323 164.5 114.323 164.5 162.427 141.678 185.213 87.5 185.213Z" fill="#FFFFFF" fill-rule="evenodd"/><path d="M141.678 185.213 146.243 166.984 164.5 162.427Z" fill="#CDCDCD" fill-rule="evenodd"/><path d="M141.678 185.213 146.243 166.984 164.5 162.427 141.678 185.213 87.5 185.213 87.5 114.323 164.5 114.323 164.5 162.427" stroke="#172C51" stroke-width="1.33393" stroke-miterlimit="8" fill="none" fill-rule="evenodd"/><path d="M269 141.614C269 135.089 274.298 129.799 280.834 129.799L369.166 129.799C375.702 129.799 381 135.089 381 141.614L381 188.874C381 195.399 375.702 200.689 369.166 200.689L280.834 200.689C274.298 200.689 269 195.399 269 188.874Z" fill="#4472C4" fill-rule="evenodd"/><text fill="#FFFFFF" font-family="Calibri,Calibri_MSFontService,sans-serif" font-weight="700" font-size="19" transform="matrix(1 0 0 0.998453 281.804 148)">create_</text><text fill="#FFFFFF" font-family="Calibri,Calibri_MSFontService,sans-serif" font-weight="700" font-size="19" transform="matrix(1 0 0 0.998453 281.804 171)">training_</text><text fill="#FFFFFF" font-family="Calibri,Calibri_MSFontService,sans-serif" font-weight="700" font-size="19" transform="matrix(1 0 0 0.998453 281.804 193)">data.py</text><path d="M435.5 143.652C435.5 147.719 455.199 151.016 479.5 151.016 503.801 151.016 523.5 147.719 523.5 143.652L523.5 187.834C523.5 191.901 503.801 195.197 479.5 195.197 455.199 195.197 435.5 191.901 435.5 187.834Z" fill="#FFFFFF" fill-rule="evenodd"/><path d="M435.5 143.652C435.5 139.586 455.199 136.289 479.5 136.289 503.801 136.289 523.5 139.586 523.5 143.652 523.5 147.719 503.801 151.016 479.5 151.016 455.199 151.016 435.5 147.719 435.5 143.652Z" fill="#FFFFFF" fill-rule="evenodd"/><path d="M523.5 143.652C523.5 147.719 503.801 151.016 479.5 151.016 455.199 151.016 435.5 147.719 435.5 143.652 435.5 139.586 455.199 136.289 479.5 136.289 503.801 136.289 523.5 139.586 523.5 143.652L523.5 187.834C523.5 191.901 503.801 195.197 479.5 195.197 455.199 195.197 435.5 191.901 435.5 187.834L435.5 143.652" stroke="#172C51" stroke-width="1.33393" stroke-miterlimit="8" fill="none" fill-rule="evenodd"/><text font-family="Calibri,Calibri_MSFontService,sans-serif" font-weight="700" font-size="19" transform="matrix(1 0 0 0.998453 462.24 174)">.npy</text><path d="M577 139.617C577 133.092 582.298 127.802 588.834 127.802L677.166 127.802C683.702 127.802 689 133.092 689 139.617L689 186.877C689 193.402 683.702 198.692 677.166 198.692L588.834 198.692C582.298 198.692 577 193.402 577 186.877Z" fill="#4472C4" fill-rule="evenodd"/><text fill="#FFFFFF" font-family="Calibri,Calibri_MSFontService,sans-serif" font-weight="700" font-size="19" transform="matrix(1 0 0 0.998453 590.055 169)">train.py</text><path d="M743.5 142.529C743.5 146.527 763.199 149.768 787.5 149.768 811.8 149.768 831.5 146.527 831.5 142.529L831.5 185.962C831.5 189.96 811.8 193.201 787.5 193.201 763.199 193.201 743.5 189.96 743.5 185.962Z" fill="#FFFFFF" fill-rule="evenodd"/><path d="M743.5 142.529C743.5 138.531 763.199 135.29 787.5 135.29 811.8 135.29 831.5 138.531 831.5 142.529 831.5 146.527 811.8 149.768 787.5 149.768 763.199 149.768 743.5 146.527 743.5 142.529Z" fill="#FFFFFF" fill-rule="evenodd"/><path d="M831.5 142.529C831.5 146.527 811.8 149.768 787.5 149.768 763.199 149.768 743.5 146.527 743.5 142.529 743.5 138.531 763.199 135.29 787.5 135.29 811.8 135.29 831.5 138.531 831.5 142.529L831.5 185.962C831.5 189.96 811.8 193.201 787.5 193.201 763.199 193.201 743.5 189.96 743.5 185.962L743.5 142.529" stroke="#172C51" stroke-width="1.33393" stroke-miterlimit="8" fill="none" fill-rule="evenodd"/><text font-family="Calibri,Calibri_MSFontService,sans-serif" font-weight="700" font-size="19" transform="matrix(1 0 0 0.998453 762.771 162)">model</text><text font-family="Calibri,Calibri_MSFontService,sans-serif" font-weight="700" font-size="19" transform="matrix(1 0 0 0.998453 771.642 184)">.pth</text><path d="M743.5 220.533C743.5 224.6 763.199 227.897 787.5 227.897 811.8 227.897 831.5 224.6 831.5 220.533L831.5 264.715C831.5 268.782 811.8 272.078 787.5 272.078 763.199 272.078 743.5 268.782 743.5 264.715Z" fill="#FFFFFF" fill-rule="evenodd"/><path d="M743.5 220.533C743.5 216.466 763.199 213.17 787.5 213.17 811.8 213.17 831.5 216.466 831.5 220.533 831.5 224.6 811.8 227.897 787.5 227.897 763.199 227.897 743.5 224.6 743.5 220.533Z" fill="#FFFFFF" fill-rule="evenodd"/><path d="M831.5 220.533C831.5 224.6 811.8 227.897 787.5 227.897 763.199 227.897 743.5 224.6 743.5 220.533 743.5 216.466 763.199 213.17 787.5 213.17 811.8 213.17 831.5 216.466 831.5 220.533L831.5 264.715C831.5 268.782 811.8 272.078 787.5 272.078 763.199 272.078 743.5 268.782 743.5 264.715L743.5 220.533" stroke="#172C51" stroke-width="1.33393" stroke-miterlimit="8" fill="none" fill-rule="evenodd"/><text font-family="Calibri,Calibri_MSFontService,sans-serif" font-weight="700" font-size="19" transform="matrix(1 0 0 0.998453 750.309 240)">optimizer</text><text font-family="Calibri,Calibri_MSFontService,sans-serif" font-weight="700" font-size="19" transform="matrix(1 0 0 0.998453 771.638 263)">.pth</text><path d="M906 100.678C906 94.1522 911.298 88.8623 917.833 88.8623L1017.17 88.8623C1023.7 88.8623 1029 94.1522 1029 100.678L1029 147.937C1029 154.463 1023.7 159.752 1017.17 159.752L917.833 159.752C911.298 159.752 906 154.463 906 147.937Z" fill="#4472C4" fill-rule="evenodd"/><text fill="#FFFFFF" font-family="Calibri,Calibri_MSFontService,sans-serif" font-weight="700" font-size="19" transform="matrix(1 0 0 0.998453 919.04 130)">animate.py</text><path d="M906 183.549C906 177.024 911.298 171.734 917.833 171.734L1017.17 171.734C1023.7 171.734 1029 177.024 1029 183.549L1029 230.809C1029 237.334 1023.7 242.624 1017.17 242.624L917.833 242.624C911.298 242.624 906 237.334 906 230.809Z" fill="#4472C4" fill-rule="evenodd"/><text fill="#FFFFFF" font-family="Calibri,Calibri_MSFontService,sans-serif" font-weight="700" font-size="19" transform="matrix(1 0 0 0.998453 919.04 213)">generate.py</text><path d="M214.5 162.747 261.529 162.747 261.529 165.744 214.5 165.744ZM253.281 157.707 264.507 164.245 253.281 170.784C252.565 171.201 251.646 170.959 251.228 170.245 250.811 169.53 251.053 168.612 251.769 168.195L260.773 162.951 260.773 165.54 251.769 160.296C251.053 159.879 250.811 158.961 251.228 158.246 251.646 157.532 252.565 157.29 253.281 157.707Z"/><path d="M382.5 164.744 428.529 164.744 428.529 167.741 382.5 167.741ZM420.281 159.704 431.507 166.242 420.281 172.781C419.565 173.198 418.646 172.956 418.228 172.242 417.811 171.527 418.053 170.609 418.769 170.192L427.773 164.948 427.773 167.537 418.769 162.292C418.053 161.875 417.811 160.958 418.228 160.243 418.646 159.528 419.565 159.287 420.281 159.704Z"/><path d="M526.5 164.744 572.529 164.744 572.529 167.741 526.5 167.741ZM564.281 159.704 575.507 166.242 564.281 172.781C563.565 173.198 562.646 172.956 562.228 172.242 561.811 171.527 562.053 170.609 562.769 170.192L571.773 164.948 571.773 167.537 562.769 162.292C562.053 161.875 561.811 160.958 562.228 160.243 562.646 159.528 563.565 159.287 564.281 159.704Z"/><path d="M691.5 164.744 737.529 164.744 737.529 167.741 691.5 167.741ZM729.281 159.704 740.507 166.242 729.281 172.781C728.565 173.198 727.646 172.956 727.228 172.242 726.811 171.527 727.053 170.609 727.768 170.192L736.773 164.948 736.773 167.537 727.768 162.292C727.053 161.875 726.811 160.958 727.228 160.243 727.646 159.528 728.565 159.287 729.281 159.704Z"/><path d="M725.5 134.792C725.5 123.487 734.678 114.323 746 114.323L828 114.323C839.322 114.323 848.5 123.487 848.5 134.792L848.5 266.586C848.5 277.891 839.322 287.055 828 287.055L746 287.055C734.678 287.055 725.5 277.891 725.5 266.586Z" stroke="#172C51" stroke-width="1.33393" stroke-miterlimit="8" stroke-dasharray="5.33571 4.00178" fill="none" fill-rule="evenodd"/><path d="M832.916 151.882 901.179 123.084 902.347 125.844 834.084 154.643ZM891.617 121.646 904.506 123.306 896.714 133.692C896.217 134.354 895.277 134.489 894.614 133.993 893.95 133.496 893.815 132.557 894.312 131.895L900.562 123.565 901.571 125.95 891.233 124.618C890.411 124.512 889.83 123.761 889.936 122.94 890.042 122.12 890.795 121.54 891.617 121.646Z"/><path d="M-0.59955 29.5788 67.5717-0.186047 68.7708 2.56028 0.59955 32.3251ZM58.0079-1.50987 70.8965-0.00277898 63.2405 10.4745C62.7523 11.1426 61.8149 11.2885 61.1467 10.8003 60.4786 10.312 60.3327 9.37462 60.821 8.70648L66.9615 0.303097 67.9973 2.67532 57.6599 1.46655C56.8379 1.37044 56.2496 0.626237 56.3457-0.195677 56.4418-1.01759 57.186-1.60597 58.0079-1.50987Z" transform="matrix(1.00155 0 0 -1 833.5 208.177)"/><path d="M784.833 107.564 784.833 102.237 786.167 102.237 786.167 107.564ZM784.833 98.241 784.833 92.9136 786.167 92.9136 786.167 98.241ZM784.833 88.918 784.833 83.5905 786.167 83.5905 786.167 88.918ZM784.833 79.595 784.833 74.2675 786.167 74.2675 786.167 79.595ZM784.833 70.2719 784.833 65.3987 785.5 66.0646 785.045 66.0646 785.045 64.7327 786.167 64.7327 786.167 70.2719ZM781.043 66.0646 775.708 66.0646 775.708 64.7327 781.043 64.7327ZM771.706 66.0646 766.37 66.0646 766.37 64.7327 771.706 64.7327ZM762.368 66.0646 757.033 66.0646 757.033 64.7327 762.368 64.7327ZM753.031 66.0646 747.695 66.0646 747.695 64.7327 753.031 64.7327ZM743.693 66.0646 738.358 66.0646 738.358 64.7327 743.693 64.7327ZM734.356 66.0646 729.02 66.0646 729.02 64.7327 734.356 64.7327ZM725.018 66.0646 719.683 66.0646 719.683 64.7327 725.018 64.7327ZM715.681 66.0646 710.345 66.0646 710.345 64.7327 715.681 64.7327ZM706.343 66.0646 701.008 66.0646 701.008 64.7327 706.343 64.7327ZM697.006 66.0646 691.67 66.0646 691.67 64.7327 697.006 64.7327ZM687.668 66.0646 682.333 66.0646 682.333 64.7327 687.668 64.7327ZM678.331 66.0646 672.995 66.0646 672.995 64.7327 678.331 64.7327ZM668.993 66.0646 663.658 66.0646 663.658 64.7327 668.993 64.7327ZM659.656 66.0646 654.32 66.0646 654.32 64.7327 659.656 64.7327ZM650.318 66.0646 644.983 66.0646 644.983 64.7327 650.318 64.7327ZM640.981 66.0646 635.645 66.0646 635.645 64.7327 640.981 64.7327ZM631.643 66.0646 629.5 66.0646 630.167 65.3987 630.167 68.5861 628.833 68.5861 628.833 64.7327 631.643 64.7327ZM630.167 72.5816 630.167 77.9091 628.833 77.9091 628.833 72.5816ZM630.167 81.9047 630.167 87.2321 628.833 87.2321 628.833 81.9047ZM630.167 91.2277 630.167 96.5552 628.833 96.5552 628.833 91.2277ZM630.167 100.551 630.167 105.878 628.833 105.878 628.833 100.551ZM630.167 109.874 630.167 115.201 628.833 115.201 628.833 109.874ZM630.167 119.197 630.167 124.524 628.833 124.524 628.833 119.197ZM634.745 117.33 629.5 126.307 624.255 117.33C624.07 117.012 624.177 116.605 624.495 116.419 624.813 116.234 625.222 116.341 625.407 116.659L630.076 124.65 628.924 124.65 633.593 116.659C633.778 116.341 634.187 116.234 634.505 116.419 634.823 116.605 634.93 117.012 634.745 117.33Z" fill="#172C51"/><text font-family="Yu Gothic,Yu Gothic_MSFontService,sans-serif" font-weight="700" font-size="19" transform="matrix(1 0 0 0.998453 90.6962 86)">学習データ</text><text font-family="Calibri,Calibri_MSFontService,sans-serif" font-weight="700" font-size="19" transform="matrix(1 0 0 0.998453 90.6962 109)">(</text><text font-family="Yu Gothic,Yu Gothic_MSFontService,sans-serif" font-weight="700" font-size="19" transform="matrix(1 0 0 0.998453 96.5322 109)">画像群</text><text font-family="Calibri,Calibri_MSFontService,sans-serif" font-weight="700" font-size="19" transform="matrix(1 0 0 0.998453 152.557 109)">)</text><text font-family="Yu Gothic,Yu Gothic_MSFontService,sans-serif" font-weight="700" font-size="19" transform="matrix(1 0 0 0.998453 669.14 92)">学習再開</text><path d="M87 14.9768 475 14.9768 492 31.9505 475 48.9242 87 48.9242Z" fill="#4472C4" fill-rule="evenodd"/><text fill="#FFFFFF" font-family="Yu Gothic,Yu Gothic_MSFontService,sans-serif" font-weight="700" font-size="19" transform="matrix(1 0 0 0.998453 266.388 38)">準備</text><path d="M492 13.9784 768 13.9784 785 30.9522 768 47.9257 492 47.9257Z" fill="#4472C4" fill-rule="evenodd"/><text fill="#FFFFFF" font-family="Yu Gothic,Yu Gothic_MSFontService,sans-serif" font-weight="700" font-size="19" transform="matrix(1 0 0 0.998453 615.725 37)">学習</text><path d="M787 13.9784 1019 13.9784 1036 30.9522 1019 47.9257 787 47.9257Z" fill="#4472C4" fill-rule="evenodd"/><text fill="#FFFFFF" font-family="Yu Gothic,Yu Gothic_MSFontService,sans-serif" font-weight="700" font-size="19" transform="matrix(1 0 0 0.998453 888.977 37)">生成</text></g></svg>