<svg width="794" height="491" xmlns="http://www.w3.org/2000/svg" xmlns:xlink="http://www.w3.org/1999/xlink" overflow="hidden"><defs><clipPath id="clip0"><rect x="0" y="0" width="794" height="491"/></clipPath></defs><g clip-path="url(#clip0)"><rect x="0" y="0" width="794" height="491.46" fill="#FFFFFF"/><path d="M57.5 100.39 118.5 100.39 118.5 134.959 102.107 151.334 57.5 151.334Z" fill="#FFFFFF" fill-rule="evenodd"/><path d="M102.107 151.334 105.386 138.234 118.5 134.959Z" fill="#CDCDCD" fill-rule="evenodd"/><path d="M102.107 151.334 105.386 138.234 118.5 134.959 102.107 151.334 57.5 151.334 57.5 100.39 118.5 100.39 118.5 134.959" stroke="#172C51" stroke-width="1.33389" stroke-miterlimit="8" fill="none" fill-rule="evenodd"/><path d="M36.5 90.4007 98.5 90.4007 98.5 124.97 82.1071 141.345 36.5 141.345Z" fill="#FFFFFF" fill-rule="evenodd"/><path d="M82.1071 141.345 85.3857 128.245 98.5 124.97Z" fill="#CDCDCD" fill-rule="evenodd"/><path d="M82.1071 141.345 85.3857 128.245 98.5 124.97 82.1071 141.345 36.5 141.345 36.5 90.4007 98.5 90.4007 98.5 124.97" stroke="#172C51" stroke-width="1.33389" stroke-miterlimit="8" fill="none" fill-rule="evenodd"/><path d="M15.5001 80.4117 77.5 80.4117 77.5 114.981 61.1071 131.356 15.5001 131.356Z" fill="#FFFFFF" fill-rule="evenodd"/><path d="M61.1071 131.356 64.3857 118.256 77.5 114.981Z" fill="#CDCDCD" fill-rule="evenodd"/><path d="M61.1071 131.356 64.3857 118.256 77.5 114.981 61.1071 131.356 15.5001 131.356 15.5001 80.4117 77.5 80.4117 77.5 114.981" stroke="#172C51" stroke-width="1.33389" stroke-miterlimit="8" fill="none" fill-rule="evenodd"/><path d="M162 100.223C162 95.6259 165.731 91.899 170.333 91.899L243.667 91.899C248.269 91.899 252 95.6259 252 100.223L252 133.52C252 138.117 248.269 141.844 243.667 141.844L170.333 141.844C165.731 141.844 162 138.117 162 133.52Z" fill="#4472C4" fill-rule="evenodd"/><text fill="#FFFFFF" font-family="Calibri,Calibri_MSFontService,sans-serif" font-weight="700" font-size="14.6567" transform="matrix(1 0 0 0.998902 173.784 104)">create_</text><text fill="#FFFFFF" font-family="Calibri,Calibri_MSFontService,sans-serif" font-weight="700" font-size="14.6567" transform="matrix(1 0 0 0.998902 173.784 121)">training_</text><text fill="#FFFFFF" font-family="Calibri,Calibri_MSFontService,sans-serif" font-weight="700" font-size="14.6567" transform="matrix(1 0 0 0.998902 173.784 139)">data.py</text><path d="M296.5 101.638C296.5 104.535 312.17 106.883 331.5 106.883 350.83 106.883 366.5 104.535 366.5 101.638L366.5 133.104C366.5 136 350.83 138.348 331.5 138.348 312.17 138.348 296.5 136 296.5 133.104Z" fill="#E2F0D9" fill-rule="evenodd"/><path d="M296.5 101.638C296.5 98.742 312.17 96.3941 331.5 96.3941 350.83 96.3941 366.5 98.742 366.5 101.638 366.5 104.535 350.83 106.883 331.5 106.883 312.17 106.883 296.5 104.535 296.5 101.638Z" fill="#EEF6E8" fill-rule="evenodd"/><path d="M366.5 101.638C366.5 104.535 350.83 106.883 331.5 106.883 312.17 106.883 296.5 104.535 296.5 101.638 296.5 98.742 312.17 96.3941 331.5 96.3941 350.83 96.3941 366.5 98.742 366.5 101.638L366.5 133.104C366.5 136 350.83 138.348 331.5 138.348 312.17 138.348 296.5 136 296.5 133.104L296.5 101.638" stroke="#172C51" stroke-width="1.33389" stroke-miterlimit="8" fill="none" fill-rule="evenodd"/><text font-family="Calibri,Calibri_MSFontService,sans-serif" font-weight="700" font-size="14.6567" transform="matrix(1 0 0 0.998902 317.557 124)">.npy</text><path d="M410 104.885C410 96.6097 416.716 89.9012 425 89.9012L485 89.9012C493.284 89.9012 500 96.6097 500 104.885L500 252.722C500 260.997 493.284 267.706 485 267.706L425 267.706C416.716 267.706 410 260.997 410 252.722Z" fill="#F4B183" fill-rule="evenodd"/><text fill="#FFFFFF" font-family="Calibri,Calibri_MSFontService,sans-serif" font-weight="700" font-size="14.6567" transform="matrix(1 0 0 0.998902 423.619 158)">train_</text><text fill="#FFFFFF" font-family="Calibri,Calibri_MSFontService,sans-serif" font-weight="700" font-size="14.6567" transform="matrix(1 0 0 0.998902 423.619 175)">sharp_</text><text fill="#FFFFFF" font-family="Calibri,Calibri_MSFontService,sans-serif" font-weight="700" font-size="14.6567" transform="matrix(1 0 0 0.998902 423.619 193)">blurred</text><text fill="#FFFFFF" font-family="Calibri,Calibri_MSFontService,sans-serif" font-weight="700" font-size="14.6567" transform="matrix(1 0 0 0.998902 423.619 211)">.py</text><path d="M543.5 100.515C543.5 103.342 559.394 105.634 579 105.634 598.606 105.634 614.5 103.342 614.5 100.515L614.5 131.231C614.5 134.058 598.606 136.35 579 136.35 559.394 136.35 543.5 134.058 543.5 131.231Z" fill="#FFFFFF" fill-rule="evenodd"/><path d="M543.5 100.515C543.5 97.6872 559.394 95.3952 579 95.3952 598.606 95.3952 614.5 97.6872 614.5 100.515 614.5 103.342 598.606 105.634 579 105.634 559.394 105.634 543.5 103.342 543.5 100.515Z" fill="#FFFFFF" fill-rule="evenodd"/><path d="M614.5 100.515C614.5 103.342 598.606 105.634 579 105.634 559.394 105.634 543.5 103.342 543.5 100.515 543.5 97.6872 559.394 95.3952 579 95.3952 598.606 95.3952 614.5 97.6872 614.5 100.515L614.5 131.231C614.5 134.058 598.606 136.35 579 136.35 559.394 136.35 543.5 134.058 543.5 131.231L543.5 100.515" stroke="#172C51" stroke-width="1.33389" stroke-miterlimit="8" fill="none" fill-rule="evenodd"/><text font-family="Calibri,Calibri_MSFontService,sans-serif" font-weight="700" font-size="14.6567" transform="matrix(1 0 0 0.998902 559.43 114)">model</text><text font-family="Calibri,Calibri_MSFontService,sans-serif" font-weight="700" font-size="14.6567" transform="matrix(1 0 0 0.998902 566.346 131)">.pth</text><path d="M543.5 156.453C543.5 159.28 559.394 161.572 579 161.572 598.606 161.572 614.5 159.28 614.5 156.453L614.5 187.169C614.5 189.997 598.606 192.289 579 192.289 559.394 192.289 543.5 189.997 543.5 187.169Z" fill="#FFFFFF" fill-rule="evenodd"/><path d="M543.5 156.453C543.5 153.626 559.394 151.334 579 151.334 598.606 151.334 614.5 153.626 614.5 156.453 614.5 159.28 598.606 161.572 579 161.572 559.394 161.572 543.5 159.28 543.5 156.453Z" fill="#FFFFFF" fill-rule="evenodd"/><path d="M614.5 156.453C614.5 159.28 598.606 161.572 579 161.572 559.394 161.572 543.5 159.28 543.5 156.453 543.5 153.626 559.394 151.334 579 151.334 598.606 151.334 614.5 153.626 614.5 156.453L614.5 187.169C614.5 189.997 598.606 192.289 579 192.289 559.394 192.289 543.5 189.997 543.5 187.169L543.5 156.453" stroke="#172C51" stroke-width="1.33389" stroke-miterlimit="8" fill="none" fill-rule="evenodd"/><text font-family="Calibri,Calibri_MSFontService,sans-serif" font-weight="700" font-size="14.6567" transform="matrix(1 0 0 0.998902 549.509 170)">optimizer</text><text font-family="Calibri,Calibri_MSFontService,sans-serif" font-weight="700" font-size="14.6567" transform="matrix(1 0 0 0.998902 566.343 187)">.pth</text><path d="M674 71.2551C674 66.6577 677.731 62.9308 682.333 62.9308L764.667 62.9308C769.269 62.9308 773 66.6577 773 71.2551L773 104.552C773 109.149 769.269 112.876 764.667 112.876L682.333 112.876C677.731 112.876 674 109.149 674 104.552Z" fill="#4472C4" fill-rule="evenodd"/><text fill="#FFFFFF" font-family="Calibri,Calibri_MSFontService,sans-serif" font-weight="700" font-size="14.6567" transform="matrix(1 0 0 0.998902 686.209 93)">animate.py</text><path d="M674 130.19C674 125.593 677.731 121.866 682.333 121.866L764.667 121.866C769.269 121.866 773 125.593 773 130.19L773 163.487C773 168.084 769.269 171.811 764.667 171.811L682.333 171.811C677.731 171.811 674 168.084 674 163.487Z" fill="#4472C4" fill-rule="evenodd"/><text fill="#FFFFFF" font-family="Calibri,Calibri_MSFontService,sans-serif" font-weight="700" font-size="14.6567" transform="matrix(1 0 0 0.998902 686.209 152)">generate.py</text><path d="M118.5 114.873 155.529 114.873 155.529 117.871 118.5 117.871ZM147.281 109.831 158.507 116.372 147.281 122.913C146.565 123.33 145.646 123.089 145.229 122.374 144.811 121.659 145.053 120.741 145.769 120.324L154.773 115.077 154.773 117.667 145.769 112.42C145.053 112.003 144.811 111.085 145.229 110.37 145.646 109.655 146.565 109.414 147.281 109.831Z"/><path d="M253.5 115.872 289.529 115.872 289.529 118.87 253.5 118.87ZM281.281 110.83 292.507 117.371 281.281 123.912C280.565 124.329 279.646 124.088 279.229 123.373 278.811 122.658 279.053 121.74 279.769 121.323L288.773 116.076 288.773 118.666 279.769 113.419C279.053 113.002 278.811 112.084 279.229 111.369 279.646 110.654 280.565 110.413 281.281 110.83Z"/><path d="M369.5 115.872 405.529 115.872 405.529 118.87 369.5 118.87ZM397.281 110.83 408.507 117.371 397.281 123.912C396.565 124.329 395.646 124.088 395.229 123.373 394.811 122.658 395.053 121.74 395.769 121.323L404.773 116.076 404.773 118.666 395.769 113.419C395.053 113.002 394.811 112.084 395.229 111.369 395.646 110.654 396.565 110.413 397.281 110.83Z"/><path d="M501.5 115.872 538.529 115.872 538.529 118.87 501.5 118.87ZM530.281 110.83 541.507 117.371 530.281 123.912C529.565 124.329 528.646 124.088 528.229 123.373 527.811 122.658 528.053 121.74 528.769 121.323L537.773 116.076 537.773 118.666 528.769 113.419C528.053 113.002 527.811 112.084 528.229 111.369 528.646 110.654 529.565 110.413 530.281 110.83Z"/><path d="M528.5 96.8939C528.5 87.791 535.887 80.4117 545 80.4117L611 80.4117C620.113 80.4117 627.5 87.791 627.5 96.8939L627.5 186.794C627.5 195.897 620.113 203.277 611 203.277L545 203.277C535.887 203.277 528.5 195.897 528.5 186.794Z" stroke="#172C51" stroke-width="1.33389" stroke-miterlimit="8" stroke-dasharray="5.33557 4.00168" fill="none" fill-rule="evenodd"/><path d="M615.973 106.977 669.191 87.0425 670.245 89.8496 617.027 109.784ZM659.696 85.2141 672.507 87.4015 664.295 97.4636C663.771 98.1053 662.826 98.2014 662.183 97.6783 661.541 97.1552 661.445 96.211 661.969 95.5693L668.555 87.4989 669.465 89.9236 659.19 88.1692C658.373 88.0297 657.824 87.2551 657.964 86.4391 658.104 85.6231 658.879 85.0746 659.696 85.2141Z"/><path d="M-0.548106 20.5807 52.6279-0.309923 53.7241 2.48044 0.548106 23.371ZM43.1161-1.99055 55.945-0.00254041 47.8998 10.186C47.3867 10.8357 46.4441 10.9465 45.7944 10.4335 45.1447 9.9204 45.0339 8.97779 45.5469 8.32806L51.9996 0.156297 52.9465 2.56655 42.657 0.972058C41.8389 0.845282 41.2785 0.079308 41.4053-0.738793 41.5321-1.55689 42.298-2.11732 43.1161-1.99055Z" transform="matrix(1.0011 0 0 -1 616.5 147.338)"/><path d="M576.833 75.8782 576.833 70.5485 578.167 70.5485 578.167 75.8782ZM576.833 66.5512 576.833 61.2215 578.167 61.2215 578.167 66.5512ZM576.833 57.2242 576.833 51.8945 578.167 51.8945 578.167 57.2242ZM576.833 47.8972 576.833 45.4501 577.5 46.1163 574.614 46.1163 574.614 44.7839 578.167 44.7839 578.167 47.8972ZM570.612 46.1163 565.277 46.1163 565.277 44.7839 570.612 44.7839ZM561.275 46.1163 555.94 46.1163 555.94 44.7839 561.275 44.7839ZM551.938 46.1163 546.602 46.1163 546.602 44.7839 551.938 44.7839ZM542.601 46.1163 537.265 46.1163 537.265 44.7839 542.601 44.7839ZM533.263 46.1163 527.928 46.1163 527.928 44.7839 533.263 44.7839ZM523.926 46.1163 518.591 46.1163 518.591 44.7839 523.926 44.7839ZM514.589 46.1163 509.253 46.1163 509.253 44.7839 514.589 44.7839ZM505.252 46.1163 499.916 46.1163 499.916 44.7839 505.252 44.7839ZM495.914 46.1163 490.579 46.1163 490.579 44.7839 495.914 44.7839ZM486.577 46.1163 481.242 46.1163 481.242 44.7839 486.577 44.7839ZM477.24 46.1163 471.904 46.1163 471.904 44.7839 477.24 44.7839ZM467.903 46.1163 462.567 46.1163 462.567 44.7839 467.903 44.7839ZM458.565 46.1163 453.23 46.1163 453.23 44.7839 458.565 44.7839ZM452.167 47.7194 452.167 53.0491 450.833 53.0491 450.833 47.7194ZM452.167 57.0464 452.167 62.3761 450.833 62.3761 450.833 57.0464ZM452.167 66.3734 452.167 71.7031 450.833 71.7031 450.833 66.3734ZM452.167 75.7004 452.167 81.0301 450.833 81.0301 450.833 75.7004ZM452.167 85.0274 452.167 88.0827 450.833 88.0827 450.833 85.0274ZM456.745 80.4238 451.5 89.4049 446.255 80.4238C446.07 80.106 446.177 79.698 446.495 79.5126 446.813 79.3272 447.222 79.4346 447.407 79.7524L452.076 87.747 450.924 87.747 455.593 79.7524C455.778 79.4346 456.187 79.3272 456.505 79.5126 456.823 79.698 456.93 80.106 456.745 80.4238Z" fill="#172C51"/><text font-family="Yu Gothic,Yu Gothic_MSFontService,sans-serif" font-weight="700" font-size="14.6567" transform="matrix(1 0 0 0.998902 19.7139 57)">学習データ</text><text font-family="Calibri,Calibri_MSFontService,sans-serif" font-weight="700" font-size="14.6567" transform="matrix(1 0 0 0.998902 19.7139 74)">(</text><text font-family="Yu Gothic,Yu Gothic_MSFontService,sans-serif" font-weight="700" font-size="14.6567" transform="matrix(1 0 0 0.998902 24.2158 74)">画像群</text><text font-family="Calibri,Calibri_MSFontService,sans-serif" font-weight="700" font-size="14.6567" transform="matrix(1 0 0 0.998902 68.2343 74)">)</text><text font-family="Yu Gothic,Yu Gothic_MSFontService,sans-serif" font-weight="700" font-size="14.6567" transform="matrix(1 0 0 0.998902 485.584 68)">学習再開</text><path d="M15 9.98902 329 9.98902 341 21.976 329 33.9627 15 33.9627Z" fill="#4472C4" fill-rule="evenodd"/><text fill="#FFFFFF" font-family="Yu Gothic,Yu Gothic_MSFontService,sans-serif" font-weight="700" font-size="14.6567" transform="matrix(1 0 0 0.998902 160.576 27)">準備</text><path d="M341 9.98902 565.5 9.98902 577 21.4765 565.5 32.9638 341 32.9638Z" fill="#4472C4" fill-rule="evenodd"/><text fill="#FFFFFF" font-family="Yu Gothic,Yu Gothic_MSFontService,sans-serif" font-weight="700" font-size="14.6567" transform="matrix(1 0 0 0.998902 441.489 27)">学習</text><path d="M579 9.98902 767.5 9.98902 779 21.4764 767.5 32.9638 579 32.9638Z" fill="#4472C4" fill-rule="evenodd"/><text fill="#FFFFFF" font-family="Yu Gothic,Yu Gothic_MSFontService,sans-serif" font-weight="700" font-size="14.6567" transform="matrix(1 0 0 0.998902 661.221 27)">生成</text><path d="M286 162.655C286 157.781 289.955 153.831 294.833 153.831L367.167 153.831C372.045 153.831 376 157.781 376 162.655L376 197.949C376 202.822 372.045 206.773 367.167 206.773L294.833 206.773C289.955 206.773 286 202.822 286 197.949Z" fill="#F4B183" fill-rule="evenodd"/><text fill="#FFFFFF" font-family="Calibri,Calibri_MSFontService,sans-serif" font-weight="700" font-size="14.6567" transform="matrix(1 0 0 0.998902 297.812 168)">blur</text><text fill="#FFFFFF" font-family="Calibri,Calibri_MSFontService,sans-serif" font-weight="700" font-size="14.6567" transform="matrix(1 0 0 0.998902 297.812 185)">Training_</text><text fill="#FFFFFF" font-family="Calibri,Calibri_MSFontService,sans-serif" font-weight="700" font-size="14.6567" transform="matrix(1 0 0 0.998902 297.812 203)">Data.py</text><path d="M330.001 138.348 330.001 156.357 326.999 156.357 326.999 138.348ZM335.048 148.118 328.5 159.332 321.952 148.118C321.534 147.403 321.776 146.485 322.492 146.068 323.208 145.651 324.126 145.893 324.544 146.608L329.796 155.602 327.204 155.602 332.456 146.608C332.874 145.893 333.792 145.651 334.508 146.068 335.224 146.485 335.466 147.403 335.048 148.118Z"/><path d="M330.001 205.274 330.001 224.282 326.999 224.282 326.999 205.274ZM335.048 216.044 328.5 227.257 321.952 216.044C321.534 215.329 321.776 214.411 322.492 213.994 323.208 213.576 324.126 213.818 324.544 214.533L329.796 223.527 327.204 223.527 332.456 214.533C332.874 213.818 333.793 213.576 334.508 213.994 335.224 214.411 335.466 215.329 335.048 216.044Z"/><path d="M293.5 232.37C293.5 235.197 309.394 237.489 329 237.489 348.606 237.489 364.5 235.197 364.5 232.37L364.5 263.086C364.5 265.913 348.606 268.205 329 268.205 309.394 268.205 293.5 265.913 293.5 263.086Z" fill="#FBE5D6" fill-rule="evenodd"/><path d="M293.5 232.37C293.5 229.542 309.394 227.25 329 227.25 348.606 227.25 364.5 229.542 364.5 232.37 364.5 235.197 348.606 237.489 329 237.489 309.394 237.489 293.5 235.197 293.5 232.37Z" fill="#FDEFE6" fill-rule="evenodd"/><path d="M364.5 232.37C364.5 235.197 348.606 237.489 329 237.489 309.394 237.489 293.5 235.197 293.5 232.37 293.5 229.542 309.394 227.25 329 227.25 348.606 227.25 364.5 229.542 364.5 232.37L364.5 263.086C364.5 265.913 348.606 268.205 329 268.205 309.394 268.205 293.5 265.913 293.5 263.086L293.5 232.37" stroke="#172C51" stroke-width="1.33389" stroke-miterlimit="8" fill="none" fill-rule="evenodd"/><text font-family="Calibri,Calibri_MSFontService,sans-serif" font-weight="700" font-size="14.6567" transform="matrix(1 0 0 0.998902 315.156 255)">.npy</text><text font-family="Calibri,Calibri_MSFontService,sans-serif" font-weight="700" font-size="14.6567" transform="matrix(1 0 0 0.998902 345.586 93)">sharp</text><text font-family="Calibri,Calibri_MSFontService,sans-serif" font-weight="700" font-size="14.6567" transform="matrix(1 0 0 0.998902 345.173 225)">blurred</text><path d="M366.5 251.723 403.529 251.723 403.529 254.721 366.5 254.721ZM395.281 246.68 406.507 253.222 395.281 259.763C394.565 260.18 393.646 259.939 393.229 259.223 392.811 258.508 393.053 257.59 393.769 257.173L402.773 251.927 402.773 254.516 393.769 249.27C393.053 248.853 392.811 247.935 393.229 247.22 393.646 246.505 394.565 246.263 395.281 246.68Z"/><path d="M116.5 337.129 178.5 337.129 178.5 371.699 162.107 388.073 116.5 388.073Z" fill="#FBE5D6" fill-rule="evenodd"/><path d="M162.107 388.073 165.386 374.974 178.5 371.699Z" fill="#CAB8AC" fill-rule="evenodd"/><path d="M162.107 388.073 165.386 374.974 178.5 371.699 162.107 388.073 116.5 388.073 116.5 337.129 178.5 337.129 178.5 371.699" stroke="#172C51" stroke-width="1.33389" stroke-miterlimit="8" fill="none" fill-rule="evenodd"/><text font-family="Calibri,Calibri_MSFontService,sans-serif" font-weight="700" font-size="14.6567" transform="matrix(1 0 0 0.998902 124.637 359)">blurred</text><path d="M545.5 395.066 607.5 395.066 607.5 428.957 591.428 445.011 545.5 445.011Z" fill="#E2F0D9" fill-rule="evenodd"/><path d="M591.428 445.011 594.643 432.168 607.5 428.957Z" fill="#B6C1AE" fill-rule="evenodd"/><path d="M591.428 445.011 594.643 432.168 607.5 428.957 591.428 445.011 545.5 445.011 545.5 395.066 607.5 395.066 607.5 428.957" stroke="#172C51" stroke-width="1.33389" stroke-miterlimit="8" fill="none" fill-rule="evenodd"/><text font-family="Calibri,Calibri_MSFontService,sans-serif" font-weight="700" font-size="14.6567" transform="matrix(1 0 0 0.998902 558.687 416)">sharp</text><path d="M325.5 336.255C325.5 339.083 341.394 341.375 361 341.375 380.606 341.375 396.5 339.083 396.5 336.255L396.5 366.972C396.5 369.799 380.606 372.091 361 372.091 341.394 372.091 325.5 369.799 325.5 366.972Z" fill="#FFFFFF" fill-rule="evenodd"/><path d="M325.5 336.255C325.5 333.428 341.394 331.136 361 331.136 380.606 331.136 396.5 333.428 396.5 336.255 396.5 339.083 380.606 341.375 361 341.375 341.394 341.375 325.5 339.083 325.5 336.255Z" fill="#FFFFFF" fill-rule="evenodd"/><path d="M396.5 336.255C396.5 339.083 380.606 341.375 361 341.375 341.394 341.375 325.5 339.083 325.5 336.255 325.5 333.428 341.394 331.136 361 331.136 380.606 331.136 396.5 333.428 396.5 336.255L396.5 366.972C396.5 369.799 380.606 372.091 361 372.091 341.394 372.091 325.5 369.799 325.5 366.972L325.5 336.255" stroke="#172C51" stroke-width="1.33389" stroke-miterlimit="8" fill="none" fill-rule="evenodd"/><text font-family="Yu Gothic,Yu Gothic_MSFontService,sans-serif" font-weight="700" font-size="14.6567" transform="matrix(1 0 0 0.998902 331.147 359)">潜在変数</text><path d="M228.5 409.05 228.5 299.171 280.5 321.147 280.5 387.075Z" stroke="#172C51" stroke-width="1.33243" stroke-miterlimit="8" fill="#FFFFFF" fill-rule="evenodd"/><text font-family="Calibri,Calibri_MSFontService,sans-serif" font-weight="700" font-size="14.6567" transform="matrix(1 0 0 0.998902 228.387 358)">Encoder</text><path d="M494.5 297.173 494.5 407.053 441.5 385.077 441.5 319.149Z" stroke="#172C51" stroke-width="1.33243" stroke-miterlimit="8" fill="#FFFFFF" fill-rule="evenodd"/><text font-family="Calibri,Calibri_MSFontService,sans-serif" font-weight="700" font-size="14.6567" transform="matrix(1 0 0 0.998902 442.576 358)">Decoder</text><path d="M544.5 329.138 605.5 329.138 605.5 363.03 589.429 379.083 544.5 379.083Z" fill="#FFFFFF" fill-rule="evenodd"/><path d="M589.429 379.083 592.643 366.24 605.5 363.03Z" fill="#CDCDCD" fill-rule="evenodd"/><path d="M589.429 379.083 592.643 366.24 605.5 363.03 589.429 379.083 544.5 379.083 544.5 329.138 605.5 329.138 605.5 363.03" stroke="#172C51" stroke-width="1.33389" stroke-miterlimit="8" fill="none" fill-rule="evenodd"/><text font-family="Calibri,Calibri_MSFontService,sans-serif" font-weight="700" font-size="14.6567" transform="matrix(1 0 0 0.998902 548.498 341)">decoded</text><text font-family="Yu Gothic,Yu Gothic_MSFontService,sans-serif" font-weight="700" font-size="14.6567" transform="matrix(1 0 0 0.998902 559.916 358)">画像</text><path d="M282.5 353.611 319.529 353.611 319.529 356.609 282.5 356.609ZM311.281 348.568 322.507 355.11 311.281 361.651C310.565 362.068 309.646 361.827 309.229 361.111 308.811 360.396 309.053 359.478 309.769 359.061L318.773 353.815 318.773 356.404 309.769 351.158C309.053 350.741 308.811 349.823 309.229 349.108 309.646 348.393 310.565 348.151 311.281 348.568Z"/><path d="M400.5 352.612 436.529 352.612 436.529 355.61 400.5 355.61ZM428.281 347.57 439.507 354.111 428.281 360.652C427.565 361.069 426.646 360.828 426.229 360.113 425.811 359.397 426.053 358.48 426.769 358.062L435.773 352.816 435.773 355.406 426.769 350.159C426.053 349.742 425.811 348.824 426.229 348.109 426.646 347.394 427.565 347.152 428.281 347.57Z"/><path d="M0-1.49898 36.9881-1.49898 36.9881 1.49898 0 1.49898ZM28.7495-6.54123 39.963 0 28.7495 6.54123C28.0344 6.95836 27.1165 6.71682 26.6994 6.00173 26.2823 5.28664 26.5238 4.36879 27.2389 3.95165L36.2328-1.29479 36.2328 1.29479 27.2389-3.95165C26.5238-4.36879 26.2823-5.28664 26.6994-6.00173 27.1165-6.71682 28.0344-6.95836 28.7495-6.54123Z" transform="matrix(1.0011 0 0 -1 183.5 355.11)"/><path d="M500.5 353.611 536.529 353.611 536.529 356.609 500.5 356.609ZM528.281 348.568 539.507 355.11 528.281 361.651C527.565 362.068 526.646 361.827 526.229 361.111 525.811 360.396 526.053 359.478 526.769 359.061L535.773 353.815 535.773 356.404 526.769 351.158C526.053 350.741 525.811 349.823 526.229 349.108 526.646 348.393 527.565 348.151 528.281 348.568Z"/><path d="M609.5 350.614 646.529 350.614 646.529 353.612 609.5 353.612ZM638.281 345.572 649.507 352.113 638.281 358.654C637.565 359.071 636.646 358.83 636.229 358.115 635.811 357.4 636.053 356.482 636.769 356.065L645.773 350.818 645.773 353.408 636.769 348.161C636.053 347.744 635.811 346.826 636.229 346.111 636.646 345.396 637.565 345.155 638.281 345.572Z"/><path d="M609.5 418.539 646.529 418.539 646.529 421.537 609.5 421.537ZM638.281 413.497 649.507 420.038 638.281 426.58C637.565 426.997 636.646 426.755 636.229 426.04 635.811 425.325 636.053 424.407 636.769 423.99L645.773 418.743 645.773 421.333 636.769 416.087C636.053 415.67 635.811 414.752 636.229 414.037 636.646 413.321 637.565 413.08 638.281 413.497Z"/><path d="M658.167 430.027C655.589 430.027 653.5 427.94 653.5 425.366L653.5 335.798C653.5 333.223 655.589 331.136 658.167 331.136L676.833 331.136C679.411 331.136 681.5 333.223 681.5 335.798L681.5 425.366C681.5 427.94 679.411 430.027 676.833 430.027Z" stroke="#000000" stroke-width="1.33243" stroke-miterlimit="8" fill="#FFFFFF" fill-rule="evenodd"/><text font-family="Calibri,Calibri_MSFontService,sans-serif" font-weight="700" font-size="14.6567" transform="matrix(-1.83697e-16 -0.997805 1.0011 -1.83495e-16 672.059 407)">Loss</text><text font-family="Yu Gothic,Yu Gothic_MSFontService,sans-serif" font-weight="700" font-size="14.6567" transform="matrix(-1.83697e-16 -0.997805 1.0011 -1.83495e-16 672.059 381)">関数</text><path d="M494.5 417.042C494.5 422.558 491.745 427.031 488.347 427.031L367.653 427.03C364.255 427.03 361.5 431.503 361.5 437.02 361.5 431.503 358.745 427.03 355.347 427.03L234.653 427.03C231.255 427.03 228.5 422.558 228.5 417.041" stroke="#000000" stroke-width="1.33243" stroke-miterlimit="8" fill="none" fill-rule="evenodd"/><path d="M685.614 376.586 709 376.586 709 476.477 359 476.477 359 442.543 361 442.543 361 475.477 360 474.478 708 474.478 707 475.477 707 377.585 708 378.584 685.614 378.584ZM354.467 450.034 360 440.56 365.533 450.034C365.811 450.511 365.65 451.123 365.173 451.401 364.695 451.679 364.083 451.518 363.804 451.042L359.136 443.047 360.864 443.047 356.195 451.042C355.917 451.518 355.304 451.679 354.827 451.401 354.35 451.123 354.189 450.511 354.467 450.034Z" fill="#172C51"/><path d="M13 282.689 769 282.689" stroke="#172C51" stroke-width="2.00084" stroke-miterlimit="8" stroke-dasharray="8.00336 6.00252" fill="none" fill-rule="evenodd"/></g></svg>